<svg version="1.2" baseProfile="tiny-ps" xmlns="http://www.w3.org/2000/svg" viewBox="0 0 1000 1000" width="1000" height="1000">
	<title>Shape 1</title>
	<style>
		tspan { white-space:pre }
		.shp0 { fill: #7157e7 } 
		.shp1 { fill: #ac9dee } 
	</style>
	<path id="Background" class="shp0" d="M987.63 12.37C979.38 4.13 969.61 0 958.33 0L41.67 0C30.38 0 20.61 4.13 12.37 12.37C4.12 20.62 0 30.39 0 41.67L0 958.33C0 969.61 4.12 979.38 12.37 987.63C20.61 995.87 30.38 1000 41.67 1000L958.33 1000C969.61 1000 979.38 995.87 987.63 987.63C995.87 979.38 1000 969.61 1000 958.33L1000 41.67C1000 30.39 995.87 20.62 987.63 12.37Z" />
	<path id="Shape 1" class="shp1" d="M890.1 109.9C883.5 103.3 875.69 100 866.67 100L133.33 100C124.3 100 116.49 103.3 109.9 109.9C103.3 116.5 100 124.31 100 133.33L100 866.67C100 875.69 103.3 883.5 109.9 890.1C116.49 896.7 124.3 900 133.33 900L866.67 900C875.69 900 883.5 896.7 890.1 890.1C896.7 883.5 900 875.69 900 866.67L900 133.33C900 124.31 896.7 116.5 890.1 109.9Z" />
</svg>